# xmcd CD database file
#
# Track frame offsets:
#	150
#	10832
#	19667
#	26565
#	39580
#	48797
#	54640
#	63257
#	74282
#	80067
#	93762
#	102225
#	108112
#	126820
#	137647
#	145020
#	152905
#	162432
#	171525
#	185597
#	194017
#	203825
#	207542
#	210192
#	217105
#	227967
#	238822
#	251822
#	265907
#	273632
#
# Disc length: 3680 seconds
#
# Revision: 0
# Processed by: cddbd v1.4PL0 Copyright (c) Steve Scherf et al.
# Submitted via: Feurio! 1.64 - http://www.feurio.com
#
DISCID=c00e5e1e
DTITLE=Eddie Wilson - Dankeschön, bitteschön, Wiedersehen -(CD 2)-(Englisch)
DYEAR=1993
DGENRE=Country
TTITLE0=Dankeschön, bitteschön, Wiedersehen
TTITLE1=Night Train To Memphis (Ray Berry)
TTITLE2=Breakdown (Willie Köhler)
TTITLE3=Blue Ranger
TTITLE4=Alone With You
TTITLE5=Foggy Mountain Breakdown (George Brown)
TTITLE6=Columbus Stockade Blues
TTITLE7=I'll Always Be Waiting (& Hank West)
TTITLE8=Raggedy Ann ( and George Brown)
TTITLE9=Don't Take Your Guns Tp Town
TTITLE10=Never Be Anyone Else But You
TTITLE11=Breakdown #2
TTITLE12=Tom Dooley
TTITLE13=The Roving Gambler
TTITLE14=Hula Love
TTITLE15=Second Fiddle
TTITLE16=Riverboat
TTITLE17=They'll Never Take Her Love From Me
TTITLE18=Don't Fence Me In
TTITLE19=His Burdens Are Greater Than Mine
TTITLE20=Y'all Come ( and George Brown))
TTITLE21=I'll Fly Away (Theme)
TTITLE22=I Saw The Light ( and Martin Haerle and Little Willie)
TTITLE23=I'll Fly Away (Martin Haerle)
TTITLE24=Tramp On The Street (Little Willie)
TTITLE25=Wait A Little Longer Please Jesus ( and Little Willie)
TTITLE26=The Old Country Church
TTITLE27=The Family Who Prays ( and Little Willie)
TTITLE28=Dear Brother  ( and Little Willie)
TTITLE29=I Saw The Light ( and Little Willie)
EXTD=AAD-Bear Family Records-1993 -(BCD 15615 BH)
EXTT0=
EXTT1=
EXTT2=
EXTT3=
EXTT4=
EXTT5=
EXTT6=
EXTT7=
EXTT8=
EXTT9=
EXTT10=
EXTT11=
EXTT12=
EXTT13=
EXTT14=
EXTT15=
EXTT16=
EXTT17=
EXTT18=
EXTT19=
EXTT20=
EXTT21=
EXTT22=
EXTT23=
EXTT24=
EXTT25=
EXTT26=
EXTT27=
EXTT28=
EXTT29=
PLAYORDER=
